<svg width="41" height="41" viewBox="0 0 41 41" fill="none" xmlns="http://www.w3.org/2000/svg">
<path d="M20.5 6.83334C22.3123 6.83334 24.0504 7.55328 25.3319 8.83478C26.6134 10.1163 27.3333 11.8544 27.3333 13.6667C27.3333 15.479 26.6134 17.2171 25.3319 18.4986C24.0504 19.7801 22.3123 20.5 20.5 20.5C18.6877 20.5 16.9496 19.7801 15.6681 18.4986C14.3866 17.2171 13.6666 15.479 13.6666 13.6667C13.6666 11.8544 14.3866 10.1163 15.6681 8.83478C16.9496 7.55328 18.6877 6.83334 20.5 6.83334ZM20.5 23.9167C28.0508 23.9167 34.1666 26.9746 34.1666 30.75V34.1667H6.83331V30.75C6.83331 26.9746 12.9491 23.9167 20.5 23.9167Z" fill="black"/>
</svg>
