<svg width="29" height="27" viewBox="0 0 29 27" fill="none" xmlns="http://www.w3.org/2000/svg">
<path d="M6.04167 10.125V23.625H1.20834V10.125H6.04167ZM10.875 23.625C10.2341 23.625 9.61937 23.3879 9.16616 22.966C8.71295 22.544 8.45834 21.9717 8.45834 21.375V10.125C8.45834 9.50625 8.72417 8.94375 9.17125 8.53875L17.1221 1.125L18.4029 2.3175C18.7292 2.62125 18.9346 3.0375 18.9346 3.49875L18.8983 3.85875L17.7504 9H25.375C26.0159 9 26.6306 9.23705 27.0838 9.65901C27.5371 10.081 27.7917 10.6533 27.7917 11.25V13.5C27.7917 13.7925 27.7313 14.0625 27.6225 14.3212L23.9733 22.2525C23.6108 23.0625 22.7529 23.625 21.75 23.625H10.875ZM10.875 21.375H21.7863L25.375 13.5V11.25H14.7538L16.1192 5.265L10.875 10.1587V21.375Z" fill="black"/>
</svg>
